Raging Bull (1980) B & W with Color Sequences

Director: Martin Scorsese

Raging Bull is a 1980 American biographical film directed by Martin Scorsese, adapted by Paul Schrader and Mardik Martin from the Jake La Motta memoir Raging Bull: My Story. It stars Robert De Niro as Jake LaMotta, a middleweight boxer whose sadomasochistic rage, sexual jealousy, and animalistic appetite exceeded the boundaries of the prizefight ring, and destroyed his relationship with his wife and family. Also featured in the film are Joe Pesci as Joey, La Motta's well intentioned brother and manager who tries to help Jake battle his inner demons, and Cathy Moriarty as his abused wife. The film features supporting roles from Nicholas Colasanto, Theresa Saldana, and Frank Vincent.

Scorsese was partially convinced by De Niro to develop the project, though he eventually came to relate to La Motta's story. Schrader re-wrote Martin's first screenplay, and Scorsese and De Niro together made uncredited contributions thereafter. Pesci was an unknown actor prior to the film, as was Moriarty, who was suggested for her role by Pesci. During principal photography, each of the boxing scenes were choreographed for a specific visual style and De Niro gained approximately 60 pounds (27 kg) to portray La Motta in his early post-boxing years. Scorsese was exacting in the process of editing and mixing the film, expecting it to be his last major feature.

After receiving mixed initial reviews (and criticism due to its violent content), it went on to garner a high critical reputation and is now widely regarded among the greatest films ever made, including by Roger Ebert of the Chicago Sun-Times, renowned British motion picture historian Leslie Halliwell, the American Film Institute, Time magazine, The New York Times, Variety, Entertainment Weekly, Empire magazine, Total Film, Film 4, BFI's Sight and Sound and AMC's FilmSite. It was listed in the National Film Registry in 1990, its first year of eligibility.

Media Info:
General
Complete name                    : J:\Seeding\Raging Bull (1980)[DVDRip][big_dad_e™]\Raging Bull (1980)[DVDRip][big_dad_e™].AVI
Format                           : AVI
Format/Info                      : Audio Video Interleave
File size                        : 1.65 GiB
Duration                         : 2h 8mn
Overall bit rate                 : 1 832 Kbps

Video
ID                               : 0
Format                           : MPEG-4 Visual
Format profile                   : Simple@L3
Format settings, BVOP            : No
Format settings, QPel            : No
Format settings, GMC             : No warppoints
Format settings, Matrix          : Default (H.263)
Codec ID                         : XVID
Codec ID/Hint                    : XviD
Duration                         : 2h 8mn
Bit rate                         : 1 500 Kbps
Width                            : 718 pixels
Height                           : 346 pixels
Display aspect ratio             : 16:9
Frame rate                       : 23.976 fps
Color space                      : YUV
Chroma subsampling               : 4:2:0
Bit depth                        : 8 bits
Scan type                        : Progressive
Bits/(Pixel*Frame)               : 0.252
Stream size                      : 1.35 GiB (82%)
Writing library                  : XviD 1.1.2 (UTC 2006-11-01)

Audio
ID                               : 1
Format                           : MPEG Audio
Format version                   : Version 1
Format profile                   : Layer 3
Mode                             : Joint stereo
Codec ID                         : 55
Codec ID/Hint                    : MP3
Duration                         : 2h 8mn
Bit rate mode                    : Constant
Bit rate                         : 320 Kbps
Channel(s)                       : 2 channels
Sampling rate                    : 48.0 KHz
Stream size                      : 295 MiB (17%)
Alignment                        : Split accross interleaves
Interleave, duration             : 24 ms (0.58 video frame)
Interleave, preload duration     : 24 ms
Writing library                  : LAME3.98

File Scan:
Malwarebytes' Anti-Malware 1.50.1.1100
www.malwarebytes.org

Database version: 5576

1/23/2011 11:24:26 PM
mbam-log-2011-01-23 (23-24-26).txt

Scan type: Quick scan
Objects scanned: 5
Time elapsed: 33 second(s)

Memory Processes Infected: 0
Memory Modules Infected: 0
Registry Keys Infected: 0
Registry Values Infected: 0
Registry Data Items Infected: 0
Folders Infected: 0
Files Infected: 0

Memory Processes Infected:
(No malicious items detected)

Memory Modules Infected:
(No malicious items detected)

Registry Keys Infected:
(No malicious items detected)

Registry Values Infected:
(No malicious items detected)

Registry Data Items Infected:
(No malicious items detected)

Folders Infected:
(No malicious items detected)

Files Infected:
(No malicious items detected)

When using TPB please read these important notes:
  
01- Anti-malware apps may warn about keygens, patches, cracks, etc., because of 
    their capabilities, (generating codes, etc.). Sometimes they're added to 
    the virus/spyware database and will be detected as malware. If you don't trust
    the keygens, patches, cracks, etc., don't use them. 
    
02- Before running .exe-files, keygens, patches, cracks, etc., always check first 
    if they can be unpacked. Often some third party added a virus to the 
    original file, repacked it and uploaded it again.

03- Letting anti-malware apps send scan results to their companies can cause
    keygens, patches, cracks, etc., to be added to their virus-database.

04- Firewalls which are set to automatically determine connections will allow 
    apps & malware!. Avoid this by manually configuring your firewall.

05- Usually (new) torrents with many downloads and seeders in a brief period is
    suspicious! Torrents with the Skull & Crossbones icon are trusted.

06- Some people use multiple accounts and post fake comments 
    and/or files trying to spread confusion. They seldom seriously
    comment or have any torrents, or a just a few to look passable.

07- Clicking on unknown links can cause malware to be installed on your machine.
  
08- In general often there are more fake and negative comments than reliable and
    positive comments.

09- In some countries uploading/downloading copyright protected material is 
    forbidden, but showing some appreciation to reliable up-loaders is not.

10- Posting fake and negative comments or fake/infected uploads on TPB can result
    in getting banned from TPB!

Requests?  Find me on SuprBay. http://forum.suprbay.org/member.php?action=profile&uid=91870
 

For reporting bad or suspicious torrents:  
http://forum.suprbay.org/forumdisplay.php?fid=29

For more of my torrents: 
https://thepiratebay.org/user/big_dad_e/  (Secured)

All torrents scanned with:
Norton Anti-virus
Malwarebytes' Anti-malware
 
http://www.pirate-party.us/

ALWAYS SEED & THANKS SEEDERS!